<?xml version="1.0" encoding="UTF-8"?>
<!DOCTYPE svg PUBLIC "-//W3C//DTD SVG 1.1//EN" "http://www.w3.org/Graphics/SVG/1.1/DTD/svg11.dtd">
<svg xmlns="http://www.w3.org/2000/svg" version="1.1" width="299px" height="299px" style="shape-rendering:geometricPrecision; text-rendering:geometricPrecision; image-rendering:optimizeQuality; fill-rule:evenodd; clip-rule:evenodd" xmlns:xlink="http://www.w3.org/1999/xlink">
<g><path style="opacity:1" fill="#10789f" d="M 136.5,0.5 C 136.5,0.166667 136.5,-0.166667 136.5,-0.5C 144.833,-0.5 153.167,-0.5 161.5,-0.5C 197.676,3.43674 228.676,18.1034 254.5,43.5C 255.419,46.0892 257.086,48.0892 259.5,49.5C 266.044,55.5925 271.377,62.5925 275.5,70.5C 276.003,73.8458 276.67,77.1792 277.5,80.5C 278.192,79.9747 278.692,79.3081 279,78.5C 280.859,81.5638 282.692,84.5638 284.5,87.5C 297.132,117.909 299.965,149.242 293,181.5C 291.364,189.245 288.864,196.578 285.5,203.5C 284.442,204.6 283.608,205.934 283,207.5C 282.333,206.167 281.667,206.167 281,207.5C 279.961,206.756 279.461,205.756 279.5,204.5C 302.552,140.882 289.552,86.0485 240.5,40C 216.009,19.4328 187.675,8.26611 155.5,6.5C 155.389,5.88258 155.056,5.38258 154.5,5C 151.833,4.66667 149.167,4.33333 146.5,4C 146.957,3.58605 147.291,3.08605 147.5,2.5C 150.785,1.67636 154.118,1.17636 157.5,1C 150.508,0.500377 143.508,0.333711 136.5,0.5 Z"/></g>
<g><path style="opacity:1" fill="#3a4b5d" d="M 61.5,28.5 C 57.9493,32.289 53.9493,35.6223 49.5,38.5C 52.7212,34.224 56.7212,30.8907 61.5,28.5 Z"/></g>
<g><path style="opacity:1" fill="#374b5b" d="M 254.5,43.5 C 256.914,44.9108 258.581,46.9108 259.5,49.5C 257.086,48.0892 255.419,46.0892 254.5,43.5 Z"/></g>
<g><path style="opacity:1" fill="#375c77" d="M 275.5,70.5 C 279.745,75.437 282.745,81.1037 284.5,87.5C 282.692,84.5638 280.859,81.5638 279,78.5C 278.692,79.3081 278.192,79.9747 277.5,80.5C 276.67,77.1792 276.003,73.8458 275.5,70.5 Z"/></g>
<g><path style="opacity:1" fill="#42454d" d="M 49.5,38.5 C 0.212388,89.8756 -10.6209,148.542 17,214.5C 42.397,262.283 81.897,289.95 135.5,297.5C 80.0834,290.89 39.5834,262.89 14,213.5C 6.33394,196.822 1.5006,179.488 -0.5,161.5C -0.5,153.167 -0.5,144.833 -0.5,136.5C 3.59869,98.136 19.5987,65.636 47.5,39C 48.0944,38.5357 48.7611,38.369 49.5,38.5 Z"/></g>
<g><path style="opacity:1" fill="#0e7c9f" d="M 136.5,0.5 C 143.508,0.333711 150.508,0.500377 157.5,1C 154.118,1.17636 150.785,1.67636 147.5,2.5C 147.291,3.08605 146.957,3.58605 146.5,4C 149.167,4.33333 151.833,4.66667 154.5,5C 155.056,5.38258 155.389,5.88258 155.5,6.5C 99.829,6.24487 57.329,29.5782 28,76.5C 6.63707,116.78 3.63707,158.447 19,201.5C 41.6754,252.165 80.5087,281.665 135.5,290C 202.231,292.487 250.231,263.987 279.5,204.5C 279.461,205.756 279.961,206.756 281,207.5C 281.667,206.167 282.333,206.167 283,207.5C 283.608,205.934 284.442,204.6 285.5,203.5C 281.347,216.809 274.847,228.809 266,239.5C 238.943,272.78 204.11,292.113 161.5,297.5C 161.5,297.833 161.5,298.167 161.5,298.5C 153.167,298.5 144.833,298.5 136.5,298.5C 136.5,297.833 136.167,297.5 135.5,297.5C 81.897,289.95 42.397,262.283 17,214.5C -10.6209,148.542 0.212388,89.8756 49.5,38.5C 53.9493,35.6223 57.9493,32.289 61.5,28.5C 83.5454,11.7014 108.545,2.36806 136.5,0.5 Z"/></g>
<g><path style="opacity:1" fill="#42444f" d="M 284.5,87.5 C 292.126,103.007 296.793,119.34 298.5,136.5C 298.5,144.833 298.5,153.167 298.5,161.5C 289.362,227.811 253.028,271.644 189.5,293C 180.349,295.692 171.015,297.192 161.5,297.5C 204.11,292.113 238.943,272.78 266,239.5C 274.847,228.809 281.347,216.809 285.5,203.5C 288.864,196.578 291.364,189.245 293,181.5C 299.965,149.242 297.132,117.909 284.5,87.5 Z"/></g>
<g><path style="opacity:1" fill="#f1fafb" d="M 155.5,6.5 C 187.675,8.26611 216.009,19.4328 240.5,40C 289.552,86.0485 302.552,140.882 279.5,204.5C 250.231,263.987 202.231,292.487 135.5,290C 80.5087,281.665 41.6754,252.165 19,201.5C 3.63707,158.447 6.63707,116.78 28,76.5C 57.329,29.5782 99.829,6.24487 155.5,6.5 Z"/></g>
<g><path style="opacity:1" fill="#2d7ca4" d="M 16.5,122.5 C 16.4088,124.698 17.0755,125.031 18.5,123.5C 10.4392,175.499 26.1059,218.666 65.5,253C 80.3139,263.905 96.3139,272.405 113.5,278.5C 112.508,278.328 111.842,278.662 111.5,279.5C 49.5837,257.54 16.917,213.54 13.5,147.5C 13.564,138.912 14.564,130.579 16.5,122.5 Z"/></g>
<g><path style="opacity:1" fill="#1c729b" d="M 36.5,72.5 C 37.4916,72.3284 38.1583,72.6618 38.5,73.5C 28.5228,88.7957 21.8561,105.462 18.5,123.5C 17.0755,125.031 16.4088,124.698 16.5,122.5C 19.8561,104.462 26.5228,87.7957 36.5,72.5 Z"/></g>
<g><path style="opacity:1" fill="#1f6c90" d="M 111.5,279.5 C 111.842,278.662 112.508,278.328 113.5,278.5C 173.302,291.403 221.802,273.736 259,225.5C 284.111,186.277 289.111,144.61 274,100.5C 255.256,55.4272 222.089,27.2605 174.5,16C 145.687,10.6642 118.02,14.1642 91.5,26.5C 91.8333,25.8333 92.1667,25.1667 92.5,24.5C 147.057,2.12565 196.724,9.95899 241.5,48C 284.249,91.304 295.416,141.804 275,199.5C 253.361,248.59 215.861,276.756 162.5,284C 145.153,285.729 128.153,284.229 111.5,279.5 Z"/></g>
<g><path style="opacity:1" fill="#227896" d="M 92.5,24.5 C 92.1667,25.1667 91.8333,25.8333 91.5,26.5C 70.3849,38.282 52.7183,53.9486 38.5,73.5C 38.1583,72.6618 37.4916,72.3284 36.5,72.5C 50.8196,51.353 69.4862,35.353 92.5,24.5 Z"/></g>
<g><path style="opacity:1" fill="#f7fcfd" d="M 113.5,278.5 C 96.3139,272.405 80.3139,263.905 65.5,253C 26.1059,218.666 10.4392,175.499 18.5,123.5C 21.8561,105.462 28.5228,88.7957 38.5,73.5C 52.7183,53.9486 70.3849,38.282 91.5,26.5C 118.02,14.1642 145.687,10.6642 174.5,16C 222.089,27.2605 255.256,55.4272 274,100.5C 289.111,144.61 284.111,186.277 259,225.5C 221.802,273.736 173.302,291.403 113.5,278.5 Z"/></g>
<g><path style="opacity:1" fill="#2e7e9d" d="M 117.5,254.5 C 118.833,254.5 120.167,254.5 121.5,254.5C 121.687,256.564 122.187,258.564 123,260.5C 124.269,259.095 124.769,257.429 124.5,255.5C 125.873,255.343 127.207,255.51 128.5,256C 125.132,259.902 122.132,264.069 119.5,268.5C 118.311,269.429 116.978,269.762 115.5,269.5C 115.008,265.71 115.841,265.044 118,267.5C 118.944,266.737 119.444,265.737 119.5,264.5C 118.831,261.148 118.164,257.815 117.5,254.5 Z"/></g>
<g><path style="opacity:1" fill="#4089aa" d="M 184.5,252.5 C 187.833,251.833 189.833,253.167 190.5,256.5C 185.05,259.331 185.216,260.331 191,259.5C 190.532,263.182 188.365,264.349 184.5,263C 180.565,259.504 180.565,256.004 184.5,252.5 Z"/></g>
<g><path style="opacity:1" fill="#237d9c" d="M 144.5,257.5 C 148.349,257.019 150.349,258.686 150.5,262.5C 149.127,262.657 147.793,262.49 146.5,262C 147.731,260.817 147.731,259.651 146.5,258.5C 145.353,260.765 145.186,263.098 146,265.5C 147.652,266.217 149.152,266.55 150.5,266.5C 146.033,270.314 143.033,269.148 141.5,263C 141.863,260.808 142.863,258.974 144.5,257.5 Z"/></g>
<g><path style="opacity:1" fill="#2682a2" d="M 129.5,252.5 C 130.568,251.566 131.901,251.232 133.5,251.5C 133.5,253.167 133.5,254.833 133.5,256.5C 138.989,256.504 140.822,259.171 139,264.5C 138.626,265.416 138.126,266.25 137.5,267C 134.518,267.498 131.518,267.665 128.5,267.5C 128.84,263.124 129.507,258.791 130.5,254.5C 130.457,253.584 130.124,252.917 129.5,252.5 Z"/></g>
<g><path style="opacity:1" fill="#e6fcfe" d="M 133.5,258.5 C 135.344,260.279 136.01,262.612 135.5,265.5C 134.5,265.5 133.5,265.5 132.5,265.5C 132.298,263.05 132.631,260.717 133.5,258.5 Z"/></g>
<g><path style="opacity:1" fill="#1e769a" d="M 192.5,251.5 C 194.483,252.902 196.149,254.736 197.5,257C 199.367,257.711 200.867,257.211 202,255.5C 200.351,261.161 197.351,261.828 193,257.5C 192.505,255.527 192.338,253.527 192.5,251.5 Z"/></g>
<g><path style="opacity:1" fill="#3686a6" d="M 152.5,257.5 C 155.5,257.5 158.5,257.5 161.5,257.5C 161.5,258.5 161.5,259.5 161.5,260.5C 160.167,260.5 158.833,260.5 157.5,260.5C 157.274,263.249 157.607,265.916 158.5,268.5C 156.5,269.833 154.5,269.833 152.5,268.5C 153.751,264.836 153.751,261.169 152.5,257.5 Z"/></g>
<g><path style="opacity:1" fill="#177598" d="M 206.5,243.5 C 207.822,243.33 208.989,243.663 210,244.5C 211.123,247.249 212.623,249.749 214.5,252C 211.453,255.126 207.953,255.959 204,254.5C 203.484,251.966 202.317,249.8 200.5,248C 201.593,246.635 202.926,246.301 204.5,247C 205.708,249.25 207.041,251.417 208.5,253.5C 209.159,250.272 208.159,247.439 205.5,245C 206.056,244.617 206.389,244.117 206.5,243.5 Z"/></g>
<g><path style="opacity:1" fill="#106b8e" d="M 194.5,250.5 C 196.42,249.06 198.087,249.393 199.5,251.5C 199,251.833 198.5,252.167 198,252.5C 196.923,251.571 195.756,250.904 194.5,250.5 Z"/></g>
<g><path style="opacity:1" fill="#21769a" d="M 171.5,250.5 C 173.5,250.5 175.5,250.5 177.5,250.5C 177.815,252.226 177.981,253.893 178,255.5C 175.715,252.123 173.215,251.79 170.5,254.5C 173.28,255.973 176.113,257.307 179,258.5C 181,260.5 181,262.5 179,264.5C 176.436,266.077 173.603,267.077 170.5,267.5C 169.359,265.579 169.192,263.579 170,261.5C 171.026,264.693 173.192,266.026 176.5,265.5C 176.762,264.022 176.429,262.689 175.5,261.5C 169.572,261.086 167.406,258.086 169,252.5C 169.995,251.934 170.828,251.267 171.5,250.5 Z"/></g>
<g><path style="opacity:1" fill="#2e819e" d="M 106.5,245.5 C 110.604,245.884 114.271,247.384 117.5,250C 116.929,251.205 116.262,252.372 115.5,253.5C 114.445,248.615 111.611,247.281 107,249.5C 102.156,257.592 104.156,260.925 113,259.5C 113.456,260.744 112.956,261.577 111.5,262C 104,262.5 100.5,259 101,251.5C 102.36,248.977 104.193,246.977 106.5,245.5 Z"/></g>
<g><path style="opacity:1" fill="#2880a3" d="M 217.5,236.5 C 220.047,237.879 220.047,239.546 217.5,241.5C 218.441,243.772 219.774,245.772 221.5,247.5C 220.24,248.382 219.074,249.382 218,250.5C 216.224,247.059 214.057,243.892 211.5,241C 213.747,239.723 215.747,238.223 217.5,236.5 Z"/></g>
<g><path style="opacity:1" fill="#247ca1" d="M 93.5,239.5 C 96.2776,239.022 98.2776,240.022 99.5,242.5C 97.9928,243.739 96.8261,243.405 96,241.5C 95.5249,244.906 93.8583,247.573 91,249.5C 90.6887,254.114 88.8554,254.781 85.5,251.5C 87.9513,248.6 89.2847,245.266 89.5,241.5C 91.3797,241.771 92.713,241.104 93.5,239.5 Z"/></g>
<g><path style="opacity:1" fill="#277da3" d="M 79.5,236.5 C 85.4992,236.002 87.6659,238.669 86,244.5C 82.9515,248.482 79.9515,248.482 77,244.5C 76.0182,241.225 76.8515,238.559 79.5,236.5 Z"/></g>
<g><path style="opacity:1" fill="#dbf4f7" d="M 82.5,238.5 C 83.4778,238.811 84.1445,239.478 84.5,240.5C 83.1667,242.5 81.5,244.167 79.5,245.5C 78.4173,244.635 78.2506,243.635 79,242.5C 80.3756,241.295 81.5423,239.962 82.5,238.5 Z"/></g>
<g><path style="opacity:1" fill="#187592" d="M 136.5,53.5 C 190.886,51.0877 226.053,75.7544 242,127.5C 248.777,167.854 236.277,200.688 204.5,226C 166.915,249.566 129.582,249.233 92.5,225C 57.0499,193.98 46.8832,156.147 62,111.5C 76.8776,79.0956 101.711,59.7622 136.5,53.5 Z"/></g>
<g><path style="opacity:1" fill="#1d7e9f" d="M 222.5,232.5 C 224.785,235.452 227.452,238.118 230.5,240.5C 229.564,241.974 228.23,242.974 226.5,243.5C 225.149,240.804 223.316,238.47 221,236.5C 220.7,234.934 221.2,233.601 222.5,232.5 Z"/></g>
<g><path style="opacity:1" fill="#14577f" d="M 242.5,229.5 C 243.461,231.265 243.795,233.265 243.5,235.5C 242.5,235.5 241.5,235.5 240.5,235.5C 241.167,233.5 241.833,231.5 242.5,229.5 Z"/></g>
<g><path style="opacity:1" fill="#1f789e" d="M 218.5,229.5 C 221.861,230.203 222.194,231.537 219.5,233.5C 217.358,232.563 217.024,231.23 218.5,229.5 Z"/></g>
<g><path style="opacity:1" fill="#20759c" d="M 67.5,225.5 C 71.5841,224.945 72.2508,225.945 69.5,228.5C 69.8076,229.308 70.3076,229.975 71,230.5C 72.0437,229.377 72.7104,228.044 73,226.5C 73.4955,228.473 73.6621,230.473 73.5,232.5C 71.1667,231.833 68.8333,231.167 66.5,230.5C 66.1367,232.911 67.1367,234.411 69.5,235C 64.5036,235.664 62.6703,233.498 64,228.5C 65.5185,227.837 66.6851,226.837 67.5,225.5 Z"/></g>
<g><path style="opacity:1" fill="#1e789b" d="M 242.5,229.5 C 239.021,229.004 235.687,228.004 232.5,226.5C 231.167,227.5 229.833,228.5 228.5,229.5C 229.981,230.48 231.315,231.647 232.5,233C 233.449,233.617 234.282,233.451 235,232.5C 235.986,234.925 235.319,236.591 233,237.5C 227.911,235.616 225.077,232.283 224.5,227.5C 226.021,227.12 227.687,226.954 229.5,227C 230.787,225.59 231.954,224.09 233,222.5C 239.162,226.866 239.996,225.866 235.5,219.5C 235.833,219.167 236.167,218.833 236.5,218.5C 239.258,221.793 241.258,225.46 242.5,229.5 Z"/></g>
<g><path style="opacity:1" fill="#2c7ea3" d="M 244.5,219.5 C 249.128,220.263 250.295,222.596 248,226.5C 247.517,225.552 247.351,224.552 247.5,223.5C 242.941,223.991 241.941,222.658 244.5,219.5 Z"/></g>
<g><path style="opacity:1" fill="#217ba0" d="M 59.5,216.5 C 64.0669,216.056 67.0669,218.056 68.5,222.5C 64.4951,225.429 60.8285,225.096 57.5,221.5C 56.5244,223.123 57.0244,224.457 59,225.5C 59.4935,227.134 59.6602,228.801 59.5,230.5C 54.7292,230.908 51.7292,228.741 50.5,224C 52.5685,221.466 55.2352,220.299 58.5,220.5C 58.4326,219.041 58.7659,217.708 59.5,216.5 Z"/></g>
<g><path style="opacity:1" fill="#e2fbfa" d="M 53.5,224.5 C 54.9616,225.458 56.2949,226.624 57.5,228C 54.5096,228.847 53.1762,227.68 53.5,224.5 Z"/></g>
<g><path style="opacity:1" fill="#e9f9fb" d="M 62.5,218.5 C 64.8431,219.967 64.5097,221.301 61.5,222.5C 61.1667,222.167 60.8333,221.833 60.5,221.5C 61.1925,220.482 61.8592,219.482 62.5,218.5 Z"/></g>
<g><path style="opacity:1" fill="#086588" d="M 254.5,210.5 C 253.365,212.213 251.698,212.88 249.5,212.5C 249.281,211.325 249.614,210.325 250.5,209.5C 251.736,210.246 253.07,210.579 254.5,210.5 Z"/></g>
<g><path style="opacity:1" fill="#2d88a8" d="M 54.5,206.5 C 57.5258,207.185 59.5258,209.018 60.5,212C 59.4089,215.574 57.7422,216.074 55.5,213.5C 56.5,212.833 57.5,212.167 58.5,211.5C 55.9309,210.497 53.9309,211.33 52.5,214C 52.7591,215.261 53.4258,216.261 54.5,217C 51.4834,217.822 49.8167,216.655 49.5,213.5C 50.0141,210.323 51.6807,207.989 54.5,206.5 Z"/></g>
<g><path style="opacity:1" fill="#23819f" d="M 57.5,197.5 C 58.3909,198.261 59.0576,199.261 59.5,200.5C 54.914,203.376 50.414,206.376 46,209.5C 45.6397,207.579 44.8064,205.912 43.5,204.5C 48.7755,203.196 53.4421,200.862 57.5,197.5 Z"/></g>
<g><path style="opacity:1" fill="#1e7b98" d="M 256.5,186.5 C 259.519,187.045 261.686,188.379 263,190.5C 258.811,191.673 254.644,193.007 250.5,194.5C 252.937,195.926 255.437,197.259 258,198.5C 258.414,198.043 258.914,197.709 259.5,197.5C 260.731,198.651 260.731,199.817 259.5,201C 255.767,198.841 251.6,197.007 247,195.5C 245.831,196.009 244.998,196.842 244.5,198C 248.084,200.041 251.584,202.208 255,204.5C 255.789,206.712 255.622,208.712 254.5,210.5C 254.586,209.504 254.252,208.671 253.5,208C 250.006,206.421 246.673,204.587 243.5,202.5C 242.391,203.59 241.391,203.59 240.5,202.5C 242.587,199.327 244.421,195.994 246,192.5C 248.841,190.494 252.008,189.161 255.5,188.5C 256.298,188.043 256.631,187.376 256.5,186.5 Z"/></g>
<g><path style="opacity:1" fill="#1f7ea2" d="M 53.5,191.5 C 55.974,192.276 56.6407,193.776 55.5,196C 51.2547,198.039 47.088,200.206 43,202.5C 41.4516,201.086 40.785,199.42 41,197.5C 41.414,197.957 41.914,198.291 42.5,198.5C 45.8333,196.833 49.1667,195.167 52.5,193.5C 53.2975,193.043 53.6309,192.376 53.5,191.5 Z"/></g>
<g><path style="opacity:1" fill="#2982a5" d="M 40.5,184.5 C 45.869,184.04 48.369,186.373 48,191.5C 45.0293,195.092 41.696,195.425 38,192.5C 37.0182,189.225 37.8515,186.559 40.5,184.5 Z"/></g>
<g><path style="opacity:1" fill="#e2f4f7" d="M 43.5,187.5 C 45.9424,187.354 46.6091,188.187 45.5,190C 43.3046,191.373 40.9712,191.706 38.5,191C 39.9555,189.374 41.6221,188.208 43.5,187.5 Z"/></g>
<g><path style="opacity:1" fill="#1e7792" d="M 256.5,186.5 C 253.753,186.813 251.086,186.48 248.5,185.5C 249.938,181.82 251.438,178.153 253,174.5C 257.051,177.687 261.551,178.687 266.5,177.5C 268.168,173.685 268.668,174.018 268,178.5C 267.535,179.931 266.701,181.097 265.5,182C 260.733,182.467 256.067,181.967 251.5,180.5C 251.238,181.978 251.571,183.311 252.5,184.5C 254.026,184.994 255.359,185.661 256.5,186.5 Z"/></g>
<g><path style="opacity:1" fill="#2e6c98" d="M 254.5,167.5 C 259.15,168.579 263.483,170.413 267.5,173C 263.332,171.867 258.998,171.034 254.5,170.5C 254.5,169.5 254.5,168.5 254.5,167.5 Z"/></g>
<g><path style="opacity:1" fill="#207998" d="M 35.5,168.5 C 44.0304,166.865 48.6971,170.365 49.5,179C 44.0183,182.35 43.3516,181.517 47.5,176.5C 46.0794,171.923 43.0794,170.423 38.5,172C 36.6487,173.684 34.982,175.517 33.5,177.5C 34.4963,179.816 36.1629,181.483 38.5,182.5C 37.635,183.583 36.635,183.749 35.5,183C 31.5471,178.169 31.5471,173.335 35.5,168.5 Z"/></g>
<g><path style="opacity:1" fill="#1d7c9a" d="M 33.5,150.5 C 39.4877,150.664 40.821,153.164 37.5,158C 32.6325,157.711 31.2991,155.211 33.5,150.5 Z"/></g>
<g><path style="opacity:1" fill="#2a819e" d="M 261.5,150.5 C 267.488,150.664 268.821,153.164 265.5,158C 259.403,158.147 258.07,155.647 261.5,150.5 Z"/></g>
<g><path style="opacity:1" fill="#b8e2ec" d="M 265.5,141.5 C 264.1,142.1 263.1,143.1 262.5,144.5C 262.334,140.154 262.501,135.821 263,131.5C 264.185,129.441 265.352,129.274 266.5,131C 265.544,132.365 264.878,133.865 264.5,135.5C 265.26,137.705 265.593,139.705 265.5,141.5 Z"/></g>
<g><path style="opacity:1" fill="#2182a4" d="M 265.5,141.5 C 265.593,139.705 265.26,137.705 264.5,135.5C 264.878,133.865 265.544,132.365 266.5,131C 265.352,129.274 264.185,129.441 263,131.5C 262.501,135.821 262.334,140.154 262.5,144.5C 260.097,141.885 257.097,141.052 253.5,142C 254.938,142.219 256.271,142.719 257.5,143.5C 252.23,146.951 249.73,145.618 250,139.5C 250.75,138.874 251.584,138.374 252.5,138C 251.547,136.045 250.213,134.378 248.5,133C 250.578,133.9 252.911,134.4 255.5,134.5C 256.833,134.167 258.167,133.833 259.5,133.5C 257.257,132.526 254.924,132.192 252.5,132.5C 252.5,131.5 252.5,130.5 252.5,129.5C 250.833,129.5 249.167,129.5 247.5,129.5C 247.5,128.5 247.5,127.5 247.5,126.5C 256.007,125.257 264.507,124.257 273,123.5C 273.373,125.698 273.873,127.865 274.5,130C 274.012,131.584 273.012,132.751 271.5,133.5C 272.391,134.59 273.391,134.59 274.5,133.5C 275.429,134.689 275.762,136.022 275.5,137.5C 274.325,137.281 273.325,137.614 272.5,138.5C 273.246,139.736 273.579,141.07 273.5,142.5C 271.516,142.617 269.85,141.95 268.5,140.5C 267.583,141.127 266.583,141.461 265.5,141.5 Z"/></g>
<g><path style="opacity:1" fill="#eff7fb" d="M 266.5,133.5 C 269.322,134.789 269.989,136.789 268.5,139.5C 267.232,137.696 266.565,135.696 266.5,133.5 Z"/></g>
<g><path style="opacity:1" fill="#1b81a6" d="M 42.5,142.5 C 47.253,139.933 48.9197,135.933 47.5,130.5C 46.7189,131.729 46.2189,133.062 46,134.5C 45.7811,133.062 45.2811,131.729 44.5,130.5C 43.6816,133.107 43.1816,135.774 43,138.5C 42.8184,135.774 42.3184,133.107 41.5,130.5C 40.8333,133.5 40.1667,136.5 39.5,139.5C 38.8933,139.376 38.56,139.043 38.5,138.5C 38.8174,135.428 38.4841,132.428 37.5,129.5C 36.5214,132.953 35.0214,133.286 33,130.5C 32.51,131.793 32.3433,133.127 32.5,134.5C 34.1992,134.34 35.8659,134.506 37.5,135C 34.1692,138.1 34.1692,139.266 37.5,138.5C 37.5,139.833 37.5,141.167 37.5,142.5C 32.5825,142.158 27.7491,141.492 23,140.5C 23.31,134.867 23.81,129.2 24.5,123.5C 26.1998,123.626 27.6998,124.293 29,125.5C 29.9503,124.978 30.7836,124.311 31.5,123.5C 31.402,124.616 31.902,125.616 33,126.5C 33.6135,122.786 35.4468,122.619 38.5,126C 41.557,126.256 44.557,126.756 47.5,127.5C 48.623,125.711 49.9564,125.378 51.5,126.5C 50.381,132.829 49.2144,139.162 48,145.5C 46.8139,143.323 44.9806,142.323 42.5,142.5 Z"/></g>
<g><path style="opacity:1" fill="#4da7be" d="M 42.5,142.5 C 40.8333,142.5 39.1667,142.5 37.5,142.5C 37.5,141.167 37.5,139.833 37.5,138.5C 37.8333,138.5 38.1667,138.5 38.5,138.5C 38.56,139.043 38.8933,139.376 39.5,139.5C 40.1667,136.5 40.8333,133.5 41.5,130.5C 42.3184,133.107 42.8184,135.774 43,138.5C 43.1816,135.774 43.6816,133.107 44.5,130.5C 45.2811,131.729 45.7811,133.062 46,134.5C 46.2189,133.062 46.7189,131.729 47.5,130.5C 48.9197,135.933 47.253,139.933 42.5,142.5 Z"/></g>
<g><path style="opacity:1" fill="#9bd4e1" d="M 38.5,138.5 C 38.1667,138.5 37.8333,138.5 37.5,138.5C 34.1692,139.266 34.1692,138.1 37.5,135C 35.8659,134.506 34.1992,134.34 32.5,134.5C 32.3433,133.127 32.51,131.793 33,130.5C 35.0214,133.286 36.5214,132.953 37.5,129.5C 38.4841,132.428 38.8174,135.428 38.5,138.5 Z"/></g>
<g><path style="opacity:1" fill="#1f83a6" d="M 38.5,101.5 C 38.7236,103.702 39.0569,106.035 39.5,108.5C 40.6888,109.429 42.0222,109.762 43.5,109.5C 43.5,108.5 43.5,107.5 43.5,106.5C 42.1266,106.657 40.7932,106.49 39.5,106C 42.3118,105.054 44.6452,103.387 46.5,101C 44.5195,99.1435 42.5195,98.3101 40.5,98.5C 40.5,97.1667 40.5,95.8333 40.5,94.5C 47.3621,96.2666 53.6954,99.0999 59.5,103C 57.2912,105.552 55.4579,108.385 54,111.5C 51.8849,108.682 50.0516,108.849 48.5,112C 50.4211,112.36 52.0878,113.194 53.5,114.5C 54.7112,115.274 54.7112,116.107 53.5,117C 46.9202,115.553 40.5869,113.219 34.5,110C 35.8423,107.985 36.3423,105.818 36,103.5C 34.4078,105.493 32.9078,107.493 31.5,109.5C 31.4372,106.292 31.4372,103.126 31.5,100C 32.0319,97.9803 33.3652,97.147 35.5,97.5C 35.4469,94.9394 36.4469,92.9394 38.5,91.5C 38.8333,92 39.1667,92.5 39.5,93C 38.7558,95.1551 37.7558,97.1551 36.5,99C 36.6387,100.301 37.3054,101.134 38.5,101.5 Z"/></g>
<g><path style="opacity:1" fill="#d5ecf7" d="M 52.5,103.5 C 53.5,103.5 54.5,103.5 55.5,103.5C 55.5,104.5 55.5,105.5 55.5,106.5C 52.4331,106.879 51.4331,105.879 52.5,103.5 Z"/></g>
<g><path style="opacity:1" fill="#1f82a7" d="M 264.5,98.5 C 265.552,98.3505 266.552,98.5172 267.5,99C 265.893,100.049 265.227,101.549 265.5,103.5C 264.022,103.762 262.689,103.429 261.5,102.5C 262.524,101.148 263.524,99.8149 264.5,98.5 Z"/></g>
<g><path style="opacity:1" fill="#2583a5" d="M 262.5,93.5 C 263.613,94.9464 263.78,96.6131 263,98.5C 261.989,99.3366 260.822,99.67 259.5,99.5C 260.239,105.039 263.239,106.705 268.5,104.5C 271.468,108.964 270.302,110.297 265,108.5C 264.333,109.833 263.667,111.167 263,112.5C 259.315,111.919 255.982,110.585 253,108.5C 252.709,110.783 253.209,112.95 254.5,115C 254.167,115.5 253.833,116 253.5,116.5C 252.09,114.458 250.59,112.458 249,110.5C 241.794,112.639 239.794,110.639 243,104.5C 243.483,105.448 243.649,106.448 243.5,107.5C 244.822,107.67 245.989,107.337 247,106.5C 246.802,103.765 246.969,101.099 247.5,98.5C 248.677,101.53 250.343,104.197 252.5,106.5C 251.631,102.966 251.631,99.2998 252.5,95.5C 254.262,95.6427 255.929,95.3094 257.5,94.5C 259.169,97.911 260.835,97.5776 262.5,93.5 Z"/></g>
<g><path style="opacity:1" fill="#d5f4f8" d="M 254.5,98.5 C 255.458,98.9528 256.292,99.6195 257,100.5C 257.644,103.609 258.811,106.443 260.5,109C 259.551,109.617 258.718,109.451 258,108.5C 255.965,105.439 254.799,102.105 254.5,98.5 Z"/></g>
<g><path style="opacity:1" fill="#d4f4fb" d="M 48.5,101.5 C 51.0118,102.216 51.0118,103.216 48.5,104.5C 47.913,103.767 47.913,102.767 48.5,101.5 Z"/></g>
<g><path style="opacity:1" fill="#5da7c4" d="M 40.5,98.5 C 42.5195,98.3101 44.5195,99.1435 46.5,101C 44.6452,103.387 42.3118,105.054 39.5,106C 40.7932,106.49 42.1266,106.657 43.5,106.5C 43.5,107.5 43.5,108.5 43.5,109.5C 42.0222,109.762 40.6888,109.429 39.5,108.5C 39.0569,106.035 38.7236,103.702 38.5,101.5C 38.9321,100.29 39.5987,99.2905 40.5,98.5 Z"/></g>
<g><path style="opacity:1" fill="#197f9e" d="M 246.5,68.5 C 248.849,68.4583 250.182,69.6249 250.5,72C 249.484,75.8371 249.317,79.6705 250,83.5C 247.936,84.5914 245.769,84.7581 243.5,84C 242.387,80.412 240.72,79.912 238.5,82.5C 240.333,83.9684 240.666,85.6351 239.5,87.5C 238.335,86.5089 237.168,85.5089 236,84.5C 233.868,84.6768 232.868,85.6768 233,87.5C 234.62,89.2415 236.12,91.0748 237.5,93C 236.975,93.6924 236.308,94.1924 235.5,94.5C 231.512,89.205 227.512,83.8716 223.5,78.5C 224,78.1667 224.5,77.8333 225,77.5C 226.663,79.3284 228.496,80.9951 230.5,82.5C 231.646,81.8551 232.646,81.0217 233.5,80C 232.313,78.9805 231.313,77.8139 230.5,76.5C 232.818,75.1656 234.485,75.8323 235.5,78.5C 236.672,78.0814 237.672,77.4147 238.5,76.5C 237.5,75.1667 236.5,73.8333 235.5,72.5C 236.641,71.5745 236.641,70.7412 235.5,70C 239.356,69.8227 243.023,69.3227 246.5,68.5 Z"/></g>
<g><path style="opacity:1" fill="#1a7c9b" d="M 58.5,66.5 C 59.7562,66.4614 60.7562,66.9614 61.5,68C 59.4598,70.1851 58.1264,72.6851 57.5,75.5C 62.7161,76.923 68.0494,77.7563 73.5,78C 74.1667,78.6667 74.8333,79.3333 75.5,80C 71.1526,82.0216 66.8192,81.8549 62.5,79.5C 61.5923,80.79 61.759,82.1233 63,83.5C 63.6667,87.1667 63.6667,90.8333 63,94.5C 62.0569,87.9411 59.0569,82.6077 54,78.5C 52.8333,79.6667 51.6667,80.8333 50.5,82C 49.365,82.7494 48.365,82.5827 47.5,81.5C 49.0413,79.796 50.3746,77.9626 51.5,76C 50.4647,74.7263 49.298,73.5596 48,72.5C 47.6554,70.7991 48.3221,69.4658 50,68.5C 53.9551,72.7766 56.7885,72.1099 58.5,66.5 Z"/></g>
<g><path style="opacity:1" fill="#e5f9fc" d="M 238.5,73.5 C 238.735,72.9033 239.235,72.5699 240,72.5C 242.226,72.9784 244.392,73.645 246.5,74.5C 245.787,76.7759 245.287,79.1093 245,81.5C 243.054,78.5798 240.887,75.9131 238.5,73.5 Z"/></g>
<g><path style="opacity:1" fill="#1d809f" d="M 224.5,59.5 C 225.456,60.6594 226.456,61.8261 227.5,63C 227.167,63.5 226.833,64 226.5,64.5C 225.5,63.8333 224.5,63.1667 223.5,62.5C 222.167,63.5 220.833,64.5 219.5,65.5C 219.394,67.9824 219.061,70.4824 218.5,73C 217.668,73.6877 217.002,73.521 216.5,72.5C 215.691,70.9291 215.357,69.2624 215.5,67.5C 211.203,66.854 207.203,65.354 203.5,63C 206.119,63.0833 208.786,63.25 211.5,63.5C 211.579,62.0695 211.246,60.7362 210.5,59.5C 211.605,58.1076 212.939,56.941 214.5,56C 211.941,54.6766 211.275,52.8433 212.5,50.5C 215.132,53.1057 218.132,53.9391 221.5,53C 222.711,54.1131 222.711,55.2798 221.5,56.5C 222.188,57.8549 223.188,58.8549 224.5,59.5 Z"/></g>
<g><path style="opacity:1" fill="#e4f8fb" d="M 216.5,58.5 C 218.103,58.3118 219.437,58.8118 220.5,60C 218.783,61.5588 216.783,62.3921 214.5,62.5C 214.527,60.8007 215.194,59.4674 216.5,58.5 Z"/></g>
<g><path style="opacity:1" fill="#f9fdfd" d="M 143.5,56.5 C 190.337,57.1528 221.503,79.4861 237,123.5C 246.051,167.808 231.885,202.641 194.5,228C 163.652,243.648 132.986,243.314 102.5,227C 63.6979,199.322 50.8645,162.488 64,116.5C 79.1452,81.3546 105.645,61.3546 143.5,56.5 Z"/></g>
<g><path style="opacity:1" fill="#117ea1" d="M 196.5,194.5 C 197.874,201.935 195.207,207.769 188.5,212C 192.061,211.475 195.394,210.141 198.5,208C 202.899,207.183 207.232,206.516 211.5,206C 203.409,215.883 193.076,220.549 180.5,220C 177.881,218.144 177.048,215.644 178,212.5C 184.009,206.325 190.175,200.325 196.5,194.5 Z"/></g>
<g><path style="opacity:1" fill="#1180a2" d="M 100.5,193.5 C 107.482,198.983 113.982,204.983 120,211.5C 122.291,214.835 121.791,217.668 118.5,220C 105.892,220.532 95.5583,215.865 87.5,206C 94.7991,206.819 101.799,208.986 108.5,212.5C 108.833,212.167 109.167,211.833 109.5,211.5C 103.313,207.126 100.313,201.126 100.5,193.5 Z"/></g>
<g><path style="opacity:1" fill="#1480a3" d="M 179.5,204.5 C 178.554,210.067 175.221,214.233 169.5,217C 166.833,217.667 164.167,218.333 161.5,219C 170.548,220.054 179.548,221.388 188.5,223C 185.155,225.091 181.488,226.424 177.5,227C 168.814,228.392 160.481,227.392 152.5,224C 151.382,222.926 150.382,221.76 149.5,220.5C 144.349,225.903 138.016,228.237 130.5,227.5C 125.777,227.479 121.111,226.979 116.5,226C 114.026,225.887 112.026,224.887 110.5,223C 118.147,221.437 125.814,219.937 133.5,218.5C 126.528,216.694 121.528,212.528 118.5,206C 127.51,207.987 136.51,210.321 145.5,213C 146.966,213.635 148.3,214.469 149.5,215.5C 154.333,212.252 159.666,210.419 165.5,210C 170.126,207.854 174.792,206.02 179.5,204.5 Z"/></g>
<g><path style="opacity:1" fill="#147fa1" d="M 89.5,176.5 C 92.4071,182.69 95.2405,189.023 98,195.5C 99.5569,204.474 96.3903,206.641 88.5,202C 81.8774,196.887 77.7108,190.387 76,182.5C 81.2252,185.79 85.8919,189.79 90,194.5C 89.024,191.924 88.524,189.091 88.5,186C 88.7441,182.814 89.0774,179.647 89.5,176.5 Z"/></g>
<g><path style="opacity:1" fill="#0f7da1" d="M 207.5,177.5 C 209.579,179.675 210.579,182.342 210.5,185.5C 210.061,188.605 209.561,191.605 209,194.5C 213.078,189.751 217.745,185.751 223,182.5C 220.608,193.397 214.108,200.73 203.5,204.5C 202.558,204.392 201.725,204.059 201,203.5C 200.333,200.5 200.333,197.5 201,194.5C 203.742,189.023 205.908,183.356 207.5,177.5 Z"/></g>
<g><path style="opacity:1" fill="#127ea1" d="M 145.5,73.5 C 165.667,76.7916 185.334,81.7916 204.5,88.5C 201.36,93.6451 199.527,99.3118 199,105.5C 198.789,111.218 198.289,116.885 197.5,122.5C 198.643,133.12 198.81,143.786 198,154.5C 194.967,164.392 189.133,172.226 180.5,178C 170.25,184.581 159.75,190.748 149,196.5C 137.934,190.384 127.101,183.884 116.5,177C 107.217,170.062 101.717,160.895 100,149.5C 100.307,136.175 100.307,122.842 100,109.5C 99.4937,102.128 97.6604,95.1283 94.5,88.5C 95.3805,87.0295 96.7139,86.1962 98.5,86C 114.316,81.9644 129.982,77.7978 145.5,73.5 Z"/></g>
<g><path style="opacity:1" fill="#f0fbfc" d="M 145.5,81.5 C 161.726,84.2232 177.726,87.8899 193.5,92.5C 190.36,109.541 189.693,126.708 191.5,144C 191.265,154.138 187.265,162.471 179.5,169C 169.897,175.761 159.897,181.928 149.5,187.5C 136.031,181.02 123.864,172.686 113,162.5C 108.193,155.602 106.359,147.935 107.5,139.5C 108.246,129.169 108.412,118.836 108,108.5C 107.376,103.505 106.209,98.672 104.5,94C 105.328,93.0853 106.328,92.4186 107.5,92C 120.284,88.4737 132.951,84.9737 145.5,81.5 Z"/></g>
<g><path style="opacity:1" fill="#1981a2" d="M 72.5,158.5 C 76.0742,162.636 78.9076,167.303 81,172.5C 81.3333,169.833 81.6667,167.167 82,164.5C 83.7134,163.122 85.0467,161.455 86,159.5C 86.6667,166.5 86.6667,173.5 86,180.5C 84.5735,183.861 82.4069,184.361 79.5,182C 74.1983,175.109 71.865,167.276 72.5,158.5 Z"/></g>
<g><path style="opacity:1" fill="#0a779c" d="M 212.5,180.5 C 212.176,173.646 212.509,166.979 213.5,160.5C 216.676,164.199 218.176,168.532 218,173.5C 219.378,168.372 221.711,163.705 225,159.5C 226.151,166.179 225.151,172.512 222,178.5C 220.281,180.557 218.281,182.224 216,183.5C 214.358,183.022 213.191,182.022 212.5,180.5 Z"/></g>
<g><path style="opacity:1" fill="#5fbcd3" d="M 213.5,160.5 C 212.509,166.979 212.176,173.646 212.5,180.5C 211.181,173.656 211.181,166.656 212.5,159.5C 213.107,159.624 213.44,159.957 213.5,160.5 Z"/></g>
<g><path style="opacity:1" fill="#11a7be" d="M 153.5,87.5 C 164.567,90.8722 175.733,93.8722 187,96.5C 185.297,112.269 185.13,128.103 186.5,144C 186.116,155.101 181.116,163.434 171.5,169C 164.613,173.393 157.613,177.56 150.5,181.5C 149.833,173.833 149.167,166.167 148.5,158.5C 159.51,157.504 164.01,151.504 162,140.5C 159.393,136.191 156.06,132.525 152,129.5C 151.501,125.514 151.334,121.514 151.5,117.5C 153.167,117.5 154.833,117.5 156.5,117.5C 156.616,114.09 154.95,112.756 151.5,113.5C 151.5,111.167 151.5,108.833 151.5,106.5C 150.5,106.5 149.5,106.5 148.5,106.5C 149.455,100.591 149.789,94.5907 149.5,88.5C 151.099,88.7678 152.432,88.4345 153.5,87.5 Z"/></g>
<g><path style="opacity:1" fill="#1980a3" d="M 219.5,137.5 C 223.681,144.284 224.514,151.617 222,159.5C 219.368,162.192 217.034,161.859 215,158.5C 212.696,153.261 211.03,147.928 210,142.5C 214.154,144.653 216.82,147.986 218,152.5C 218.411,147.481 218.911,142.481 219.5,137.5 Z"/></g>
<g><path style="opacity:1" fill="#187fa1" d="M 77.5,138.5 C 78.1174,138.611 78.6174,138.944 79,139.5C 79.9929,143.442 80.6596,147.442 81,151.5C 82.3712,148.12 84.5379,145.287 87.5,143C 88.3317,142.312 88.9984,142.479 89.5,143.5C 87.3715,148.385 85.5382,153.385 84,158.5C 80.8015,162.659 78.1348,162.325 76,157.5C 75.0824,151.009 75.5824,144.675 77.5,138.5 Z"/></g>
<g><path style="opacity:1" fill="#1b81a4" d="M 210.5,123.5 C 215.331,128.491 217.498,134.491 217,141.5C 214.758,142.175 212.591,141.675 210.5,140C 207.833,136.667 205.167,133.333 202.5,130C 206.025,129.342 208.859,130.509 211,133.5C 210.799,130.223 210.632,126.889 210.5,123.5 Z"/></g>
<g><path style="opacity:1" fill="#2184a3" d="M 87.5,122.5 C 87.6458,125.956 87.8124,129.622 88,133.5C 89.9397,130.598 92.4397,129.598 95.5,130.5C 92.4451,135.555 88.4451,139.555 83.5,142.5C 82.914,142.291 82.414,141.957 82,141.5C 81.3333,138.5 81.3333,135.5 82,132.5C 83.604,128.952 85.4374,125.618 87.5,122.5 Z"/></g>
<g><path style="opacity:1" fill="#e4fafa" d="M 172.5,105.5 C 174.411,105.574 175.578,106.574 176,108.5C 176.667,113.5 176.667,118.5 176,123.5C 175.417,125.002 174.584,126.335 173.5,127.5C 173.167,127 172.833,126.5 172.5,126C 175.139,119.154 175.139,112.321 172.5,105.5 Z"/></g>
<g><path style="opacity:1" fill="#dbf7fc" d="M 162.5,111.5 C 163.5,111.5 164.5,111.5 165.5,111.5C 165.665,114.518 165.498,117.518 165,120.5C 164.586,120.957 164.086,121.291 163.5,121.5C 163.658,118.224 163.324,114.89 162.5,111.5 Z"/></g>
<g><path style="opacity:1" fill="#e7fbfc" d="M 167.5,108.5 C 168.496,108.414 169.329,108.748 170,109.5C 172,114.167 172,118.833 170,123.5C 168.844,124.993 168.01,124.826 167.5,123C 168.93,121.111 169.597,118.945 169.5,116.5C 169.294,113.664 168.627,110.998 167.5,108.5 Z"/></g>
<g><path style="opacity:1" fill="#f3fbfc" d="M 148.5,106.5 C 149.5,106.5 150.5,106.5 151.5,106.5C 151.5,108.833 151.5,111.167 151.5,113.5C 154.95,112.756 156.616,114.09 156.5,117.5C 154.833,117.5 153.167,117.5 151.5,117.5C 151.334,121.514 151.501,125.514 152,129.5C 156.06,132.525 159.393,136.191 162,140.5C 164.01,151.504 159.51,157.504 148.5,158.5C 138.106,156.406 134.272,150.073 137,139.5C 139.333,135.833 142.333,132.833 146,130.5C 146.333,122.833 146.667,115.167 147,107.5C 147.383,106.944 147.883,106.611 148.5,106.5 Z"/></g>
<g><path style="opacity:1" fill="#1d97b0" d="M 146.5,139.5 C 154.619,139.469 156.619,142.969 152.5,150C 147.345,151.677 144.345,149.844 143.5,144.5C 144.092,142.577 145.092,140.911 146.5,139.5 Z"/></g>
<g><path style="opacity:1" fill="#0a80a5" d="M 153.5,87.5 C 152.432,88.4345 151.099,88.7678 149.5,88.5C 149.789,94.5907 149.455,100.591 148.5,106.5C 147.883,106.611 147.383,106.944 147,107.5C 146.667,115.167 146.333,122.833 146,130.5C 142.333,132.833 139.333,135.833 137,139.5C 134.272,150.073 138.106,156.406 148.5,158.5C 149.167,166.167 149.833,173.833 150.5,181.5C 138.513,176.754 127.679,170.087 118,161.5C 116.414,159.33 115.08,156.996 114,154.5C 113.847,136.012 113.014,117.512 111.5,99C 111.585,97.8926 111.919,96.8926 112.5,96C 122.968,93.7997 133.301,91.1331 143.5,88C 146.817,87.5017 150.15,87.335 153.5,87.5 Z"/></g>
<g><path style="opacity:1" fill="#dff4f5" d="M 134.5,110.5 C 135.497,110.47 136.164,110.97 136.5,112C 135.622,115.286 135.289,118.453 135.5,121.5C 134.914,121.291 134.414,120.957 134,120.5C 133.253,117.076 133.42,113.743 134.5,110.5 Z"/></g>
<g><path style="opacity:1" fill="#f3f8f8" d="M 128.5,108.5 C 129.552,108.351 130.552,108.517 131.5,109C 128.876,113.829 128.876,118.663 131.5,123.5C 129.675,124.571 128.508,123.904 128,121.5C 127.371,117.129 127.537,112.796 128.5,108.5 Z"/></g>
<g><path style="opacity:1" fill="#eef8f9" d="M 124.5,104.5 C 125.376,104.369 126.043,104.702 126.5,105.5C 122.5,112.5 122.5,119.5 126.5,126.5C 124.675,127.571 123.508,126.904 123,124.5C 120.79,117.603 121.29,110.937 124.5,104.5 Z"/></g>
<g><path style="opacity:1" fill="#82c2da" d="M 83.5,46.5 C 83.56,45.9569 83.8933,45.6236 84.5,45.5C 84.8333,46.6667 85.1667,47.8333 85.5,49C 84.8926,52.1429 84.5592,55.3095 84.5,58.5C 83.8446,54.4828 83.5112,50.4828 83.5,46.5 Z"/></g>
<g><path style="opacity:1" fill="#d7f0f3" d="M 71.5,50.5 C 75.8081,51.6794 76.1415,53.0127 72.5,54.5C 72.1667,53.1667 71.8333,51.8333 71.5,50.5 Z"/></g>
<g><path style="opacity:1" fill="#2283a5" d="M 83.5,46.5 C 83.5112,50.4828 83.8446,54.4828 84.5,58.5C 86.1477,57.1902 87.8144,55.8569 89.5,54.5C 90.5,54.8333 91.1667,55.5 91.5,56.5C 89.6634,57.8379 87.9967,59.3379 86.5,61C 91.2368,66.9872 89.9034,69.4872 82.5,68.5C 85.1271,66.7505 85.1271,65.0839 82.5,63.5C 80.5,64.8333 78.5,66.1667 76.5,67.5C 75.479,66.9984 75.3123,66.3317 76,65.5C 78.0176,63.6499 79.8509,61.6499 81.5,59.5C 81.1667,59.1667 80.8333,58.8333 80.5,58.5C 78.8513,59.6477 77.3513,60.981 76,62.5C 74.8869,61.2889 73.7202,61.2889 72.5,62.5C 70.9733,60.8067 69.6399,58.9734 68.5,57C 69.8584,56.0656 71.1917,55.2323 72.5,54.5C 76.1415,53.0127 75.8081,51.6794 71.5,50.5C 69.1411,47.6055 70.1411,46.7721 74.5,48C 75.0253,48.6924 75.6919,49.1924 76.5,49.5C 77.1662,48.1687 77.1662,46.6687 76.5,45C 76.7094,43.1285 77.7094,41.9619 79.5,41.5C 80.3142,43.7662 80.8142,46.0995 81,48.5C 81.7083,47.6195 82.5416,46.9528 83.5,46.5 Z"/></g>
<g><path style="opacity:1" fill="#ddf1f8" d="M 81.5,51.5 C 82.525,51.8966 82.6917,52.5632 82,53.5C 79.9327,56.07 77.4327,58.07 74.5,59.5C 73.479,58.9984 73.3123,58.3317 74,57.5C 76.6877,55.636 79.1877,53.636 81.5,51.5 Z"/></g>
<g><path style="opacity:1" fill="#398ca1" d="M 71.5,50.5 C 71.8333,51.8333 72.1667,53.1667 72.5,54.5C 69.7224,54.9783 67.7224,53.9783 66.5,51.5C 68.0453,50.5481 69.712,50.2148 71.5,50.5 Z"/></g>
<g><path style="opacity:1" fill="#247ea1" d="M 224.5,59.5 C 224.574,57.5891 225.574,56.4224 227.5,56C 225.208,54.7101 223.208,53.0435 221.5,51C 212.788,50.8963 212.288,48.7296 220,44.5C 221.603,50.3413 223.603,50.6746 226,45.5C 226.956,46.5786 227.789,47.7453 228.5,49C 226.963,50.1096 226.297,51.6096 226.5,53.5C 233.352,53.5555 234.019,55.3888 228.5,59C 227.207,59.49 225.873,59.6567 224.5,59.5 Z"/></g>
<g><path style="opacity:1" fill="#197d9a" d="M 190.5,33.5 C 187.882,39.7351 185.548,46.0684 183.5,52.5C 182.167,52.5 180.833,52.5 179.5,52.5C 181.233,45.9713 183.566,39.638 186.5,33.5C 187.808,32.3744 189.142,32.3744 190.5,33.5 Z"/></g>
<g><path style="opacity:1" fill="#26809d" d="M 160.5,28.5 C 162.167,28.5 163.833,28.5 165.5,28.5C 164.313,31.3666 162.313,33.7 159.5,35.5C 163.717,36.912 168.05,37.5787 172.5,37.5C 172.5,38.5 172.5,39.5 172.5,40.5C 170.167,40.5 167.833,40.5 165.5,40.5C 165.5,42.5 165.5,44.5 165.5,46.5C 167.857,46.3367 170.19,46.5034 172.5,47C 173.741,48.4865 173.241,49.3199 171,49.5C 165.495,48.7077 159.995,47.8743 154.5,47C 153.098,45.6575 153.431,44.8242 155.5,44.5C 157.453,45.1556 159.453,45.4889 161.5,45.5C 161.5,43.1667 161.5,40.8333 161.5,38.5C 158.712,38.9231 156.712,37.9231 155.5,35.5C 157.605,33.4084 159.272,31.0751 160.5,28.5 Z"/></g>
<g><path style="opacity:1" fill="#2787ac" d="M 199.5,39.5 C 197.147,43.0356 195.147,46.8689 193.5,51C 191.418,50.0677 189.085,49.5677 186.5,49.5C 187.669,44.826 189.336,40.326 191.5,36C 193.783,35.7088 195.95,36.2088 198,37.5C 199.03,37.8361 199.53,38.5028 199.5,39.5 Z"/></g>
<g><path style="opacity:1" fill="#177a9d" d="M 199.5,39.5 C 200.267,38.828 200.934,37.9947 201.5,37C 198.622,35.4008 195.956,33.5675 193.5,31.5C 194,31.1667 194.5,30.8333 195,30.5C 198.712,32.3717 202.545,33.8717 206.5,35C 203.479,42.2102 200.313,49.3769 197,56.5C 193.549,58.0533 191.049,57.0533 189.5,53.5C 190.868,52.4063 192.035,52.7397 193,54.5C 195.837,49.833 198.004,44.833 199.5,39.5 Z"/></g>
<g><path style="opacity:1" fill="#2483a6" d="M 133.5,20.5 C 135.451,20.2267 136.951,20.8934 138,22.5C 139.726,21.4238 141.559,21.2571 143.5,22C 142.932,24.6838 141.932,27.1838 140.5,29.5C 142.737,30.1321 144.403,31.4654 145.5,33.5C 144.167,37.8333 144.167,42.1667 145.5,46.5C 142.212,47.4453 138.879,48.112 135.5,48.5C 136.378,40.3669 135.212,39.3669 132,45.5C 130.488,46.2567 129.154,47.2567 128,48.5C 127.202,46.7412 127.369,45.0745 128.5,43.5C 136.507,37.179 136.174,36.5123 127.5,41.5C 126.294,39.5159 126.294,37.5159 127.5,35.5C 125.988,34.7506 124.988,33.584 124.5,32C 125.087,28.6138 125.754,25.2804 126.5,22C 127.944,21.2195 129.277,21.3861 130.5,22.5C 129.926,24.0589 129.26,25.5589 128.5,27C 130.107,26.9813 131.774,26.8146 133.5,26.5C 133.5,24.5 133.5,22.5 133.5,20.5 Z"/></g>
<g><path style="opacity:1" fill="#ecf8fa" d="M 138.5,39.5 C 139.649,39.7911 140.316,40.6244 140.5,42C 140.167,42.8333 139.833,43.6667 139.5,44.5C 138.548,42.9547 138.215,41.288 138.5,39.5 Z"/></g>
<g><path style="opacity:1" fill="#d5f1f5" d="M 138.5,33.5 C 140.048,33.8212 140.715,34.8212 140.5,36.5C 137.752,36.5983 137.086,35.5983 138.5,33.5 Z"/></g>
<g><path style="opacity:1" fill="#e9fbfd" d="M 135.5,28.5 C 137.029,31.8823 135.862,34.2156 132,35.5C 131.5,35.1667 131,34.8333 130.5,34.5C 132.242,32.4366 133.909,30.4366 135.5,28.5 Z"/></g>
<g><path style="opacity:1" fill="#1c81a3" d="M 105.5,52.5 C 105.5,54.1667 105.5,55.8333 105.5,57.5C 103.089,57.8633 101.589,56.8633 101,54.5C 97.8063,47.4191 95.3063,40.0858 93.5,32.5C 95.5273,32.6621 97.5273,32.4955 99.5,32C 103.33,30.298 106.996,28.4646 110.5,26.5C 113.004,34.3511 115.67,42.1845 118.5,50C 117.279,53.7814 115.279,54.2814 112.5,51.5C 115.895,49.422 115.228,48.0887 110.5,47.5C 110.99,52.5068 110.157,53.1735 108,49.5C 107.148,50.5707 106.315,51.5707 105.5,52.5 Z"/></g>
<g><path style="opacity:1" fill="#bbe5ef" d="M 105.5,52.5 C 102.712,48.6879 100.379,44.5212 98.5,40C 99.1667,39.3333 99.8333,39.3333 100.5,40C 103.831,43.4491 105.498,47.6157 105.5,52.5 Z"/></g>
<g><path style="opacity:1" fill="#bfe8f2" d="M 105.5,39.5 C 108.005,41.1859 108.838,43.5193 108,46.5C 106.097,44.559 105.264,42.2257 105.5,39.5 Z"/></g>
<g><path style="opacity:1" fill="#cdf4fa" d="M 106.5,31.5 C 107.043,31.56 107.376,31.8933 107.5,32.5C 106.273,33.5904 105.44,34.9238 105,36.5C 102.595,34.1787 100.928,34.8454 100,38.5C 99.0754,37.9535 98.2421,37.2868 97.5,36.5C 100.221,34.2658 103.221,32.5991 106.5,31.5 Z"/></g>
<g><path style="opacity:1" fill="#378298" d="M 190.5,33.5 C 189.61,31.2181 189.444,28.8848 190,26.5C 193.149,28.7362 193.316,31.0696 190.5,33.5 Z"/></g>
<g><path style="opacity:1" fill="#b5ddd9" d="M 127.5,28.5 C 129.337,28.6395 129.67,29.3061 128.5,30.5C 127.702,30.0431 127.369,29.3764 127.5,28.5 Z"/></g>
<g><path style="opacity:1" fill="#2582a2" d="M 164.5,21.5 C 165.5,21.5 166.5,21.5 167.5,21.5C 167.5,22.8333 167.5,24.1667 167.5,25.5C 170.167,25.5 172.833,25.5 175.5,25.5C 175.43,28.5669 174.096,30.9002 171.5,32.5C 173.167,34.1667 172.833,35.1667 170.5,35.5C 167.846,34.5309 167.18,32.8643 168.5,30.5C 170.214,31.6085 170.881,30.9418 170.5,28.5C 167.42,28.2523 164.42,27.5856 161.5,26.5C 159.945,26.722 158.611,27.3887 157.5,28.5C 156.22,26.2756 156.553,24.2756 158.5,22.5C 160.179,24.1045 162.179,24.7711 164.5,24.5C 164.5,23.5 164.5,22.5 164.5,21.5 Z"/></g>
<g><path style="opacity:1" fill="#c6eff4" d="M 136.5,26.5 C 137.251,25.4265 138.251,25.2599 139.5,26C 138.648,27.7284 137.648,27.895 136.5,26.5 Z"/></g>
</svg>
